# xmcd
#
# Track frame offsets:
#	150
#	19388
#	39913
#	62355
#	78629
#	91973
#	111397
#	127685
#	142235
#	159166
#	175786
#	194587
#	213337
#	232225
#	249903
#	268603
#	289335
#	305903
#	319307
#	342987
#
# Disc length: 4779
#
# Revision: 1
# Processed by: cddbd v1.5.1PL0 Copyright (c) Steve Scherf et al.
# Submitted via: ExactAudioCopy v0.95a3
# Normalized: r0:TDELIM( - )
#
DISCID=2a12a914
DTITLE=Various Artist - Best of Raf - 2
DYEAR=1900
DGENRE=Pop
TTITLE0=Barbara Dex - Amoureuse
TTITLE1=Johnny Clegg - Asimbonanga
TTITLE2=Kelly Family - Calling Heaven
TTITLE3=Sanley Meyers - Cavatina(Deer Hunter)
TTITLE4=Alison Krauss - Down to the River
TTITLE5=Enya - May it be
TTITLE6=Crash Test Dummies - Mmm Mmm Mmm
TTITLE7=Secret Garden - Nocturne
TTITLE8=Kelly Family - Nothing like Home
TTITLE9=Peter Kingsbury - Only the very best
TTITLE10=Khadia Nin - Sina Mali,Sina Deni
TTITLE11=Ralph McTell - Streets of London
TTITLE12=Loreena McKennitt - Tango to Evora
TTITLE13=The Radios - Teardrops
TTITLE14=Sarah Brightman - Time to say Goodbye
TTITLE15=Cirque du Soleil - Vai Vedrai
TTITLE16=Espen Lind - When Susannah cries
TTITLE17=Kelly Family - When the boys comming into town
TTITLE18=Dolly Parton - You are
TTITLE19=Kelly Family - You belong to me
EXTD=
EXTT0=
EXTT1=
EXTT2=
EXTT3=
EXTT4=
EXTT5=
EXTT6=
EXTT7=
EXTT8=
EXTT9=
EXTT10=
EXTT11=
EXTT12=
EXTT13=
EXTT14=
EXTT15=
EXTT16=
EXTT17=
EXTT18=
EXTT19=
PLAYORDER=
